# xmcd CD database file
#
# Track frame offsets:
#	150
#	23217
#	48166
#	73906
#	95513
#	123712
#	149374
#	168776
#	187873
#	225658
#
# Disc length: 3391 seconds
#
# Revision: 0
# Processed by: cddbd v1.4PL0 Copyright (c) Steve Scherf et al.
# Submitted via: CD2WAV32(EN) R3.19
#
DISCID=840d3d0a
DTITLE=NAKAJIMA Miyuki - Dai-Ginmaku
DYEAR=1900
DGENRE=
TTITLE0=Ito
TTITLE1=Inoti no Betumei
TTITLE2=Takaga Ai
TTITLE3=Aijyou-Monogatari
TTITLE4=Sejyou
TTITLE5=with
TTITLE6=Watasitati wa Haru no Naka de
TTITLE7=Nemura-nai de
TTITLE8=Nisou no Hune
TTITLE9=Mabataki mo sezu
EXTD=
EXTT0=
EXTT1=
EXTT2=
EXTT3=
EXTT4=
EXTT5=
EXTT6=
EXTT7=
EXTT8=
EXTT9=
PLAYORDER=
